<mxfile host="app.diagrams.net" agent="Mozilla/5.0 (Windows NT 10.0; Win64; x64) AppleWebKit/537.36 (KHTML, like Gecko) Chrome/134.0.0.0 Safari/537.36" version="26.1.1">
  <diagram name="Page-1" id="ABr3zYtQMaUoz10iHSKm">
    <mxGraphModel dx="1648" dy="900" grid="1" gridSize="10" guides="1" tooltips="1" connect="1" arrows="1" fold="1" page="1" pageScale="1" pageWidth="1169" pageHeight="827" math="0" shadow="0">
      <root>
        <mxCell id="0" />
        <mxCell id="1" parent="0" />
        <mxCell id="leXOIWLIU-b6ZJSCzYFR-1" value="&lt;font style=&quot;font-size: 20px;&quot;&gt;&lt;b&gt;Data Mart &lt;/b&gt;&lt;/font&gt;&lt;font style=&quot;font-size: 16px;&quot;&gt;(Star Schema)&lt;/font&gt;" style="text;strokeColor=none;fillColor=none;align=left;verticalAlign=middle;spacingLeft=4;spacingRight=4;overflow=hidden;points=[[0,0.5],[1,0.5]];portConstraint=eastwest;rotatable=0;whiteSpace=wrap;html=1;" parent="1" vertex="1">
          <mxGeometry x="40" y="50" width="300" height="30" as="geometry" />
        </mxCell>
        <mxCell id="leXOIWLIU-b6ZJSCzYFR-12" value="&lt;font&gt;gold.dim_customers&lt;/font&gt;" style="shape=table;startSize=46;container=1;collapsible=1;childLayout=tableLayout;fixedRows=1;rowLines=0;fontStyle=1;align=center;resizeLast=1;html=1;fillColor=#fff2cc;strokeColor=#d6b656;fontSize=16;rounded=1;arcSize=13;" parent="1" vertex="1">
          <mxGeometry x="170" y="196" width="180" height="436" as="geometry" />
        </mxCell>
        <mxCell id="leXOIWLIU-b6ZJSCzYFR-13" value="" style="shape=tableRow;horizontal=0;startSize=0;swimlaneHead=0;swimlaneBody=0;fillColor=none;collapsible=0;dropTarget=0;points=[[0,0.5],[1,0.5]];portConstraint=eastwest;top=0;left=0;right=0;bottom=1;fontSize=16;" parent="leXOIWLIU-b6ZJSCzYFR-12" vertex="1">
          <mxGeometry y="46" width="180" height="39" as="geometry" />
        </mxCell>
        <mxCell id="leXOIWLIU-b6ZJSCzYFR-14" value="PK" style="shape=partialRectangle;connectable=0;fillColor=none;top=0;left=0;bottom=0;right=0;fontStyle=1;overflow=hidden;whiteSpace=wrap;html=1;fontSize=16;" parent="leXOIWLIU-b6ZJSCzYFR-13" vertex="1">
          <mxGeometry width="30" height="39" as="geometry">
            <mxRectangle width="30" height="39" as="alternateBounds" />
          </mxGeometry>
        </mxCell>
        <mxCell id="leXOIWLIU-b6ZJSCzYFR-15" value="customer_key" style="shape=partialRectangle;connectable=0;fillColor=none;top=0;left=0;bottom=0;right=0;align=left;spacingLeft=6;fontStyle=5;overflow=hidden;whiteSpace=wrap;html=1;fontSize=16;" parent="leXOIWLIU-b6ZJSCzYFR-13" vertex="1">
          <mxGeometry x="30" width="150" height="39" as="geometry">
            <mxRectangle width="150" height="39" as="alternateBounds" />
          </mxGeometry>
        </mxCell>
        <mxCell id="leXOIWLIU-b6ZJSCzYFR-16" value="" style="shape=tableRow;horizontal=0;startSize=0;swimlaneHead=0;swimlaneBody=0;fillColor=none;collapsible=0;dropTarget=0;points=[[0,0.5],[1,0.5]];portConstraint=eastwest;top=0;left=0;right=0;bottom=0;fontSize=16;" parent="leXOIWLIU-b6ZJSCzYFR-12" vertex="1">
          <mxGeometry y="85" width="180" height="39" as="geometry" />
        </mxCell>
        <mxCell id="leXOIWLIU-b6ZJSCzYFR-17" value="" style="shape=partialRectangle;connectable=0;fillColor=none;top=0;left=0;bottom=0;right=0;editable=1;overflow=hidden;whiteSpace=wrap;html=1;fontSize=16;" parent="leXOIWLIU-b6ZJSCzYFR-16" vertex="1">
          <mxGeometry width="30" height="39" as="geometry">
            <mxRectangle width="30" height="39" as="alternateBounds" />
          </mxGeometry>
        </mxCell>
        <mxCell id="leXOIWLIU-b6ZJSCzYFR-18" value="customer_id" style="shape=partialRectangle;connectable=0;fillColor=none;top=0;left=0;bottom=0;right=0;align=left;spacingLeft=6;overflow=hidden;whiteSpace=wrap;html=1;fontSize=16;" parent="leXOIWLIU-b6ZJSCzYFR-16" vertex="1">
          <mxGeometry x="30" width="150" height="39" as="geometry">
            <mxRectangle width="150" height="39" as="alternateBounds" />
          </mxGeometry>
        </mxCell>
        <mxCell id="leXOIWLIU-b6ZJSCzYFR-19" value="" style="shape=tableRow;horizontal=0;startSize=0;swimlaneHead=0;swimlaneBody=0;fillColor=none;collapsible=0;dropTarget=0;points=[[0,0.5],[1,0.5]];portConstraint=eastwest;top=0;left=0;right=0;bottom=0;fontSize=16;" parent="leXOIWLIU-b6ZJSCzYFR-12" vertex="1">
          <mxGeometry y="124" width="180" height="39" as="geometry" />
        </mxCell>
        <mxCell id="leXOIWLIU-b6ZJSCzYFR-20" value="" style="shape=partialRectangle;connectable=0;fillColor=none;top=0;left=0;bottom=0;right=0;editable=1;overflow=hidden;whiteSpace=wrap;html=1;fontSize=16;" parent="leXOIWLIU-b6ZJSCzYFR-19" vertex="1">
          <mxGeometry width="30" height="39" as="geometry">
            <mxRectangle width="30" height="39" as="alternateBounds" />
          </mxGeometry>
        </mxCell>
        <mxCell id="leXOIWLIU-b6ZJSCzYFR-21" value="customer_number" style="shape=partialRectangle;connectable=0;fillColor=none;top=0;left=0;bottom=0;right=0;align=left;spacingLeft=6;overflow=hidden;whiteSpace=wrap;html=1;fontSize=16;" parent="leXOIWLIU-b6ZJSCzYFR-19" vertex="1">
          <mxGeometry x="30" width="150" height="39" as="geometry">
            <mxRectangle width="150" height="39" as="alternateBounds" />
          </mxGeometry>
        </mxCell>
        <mxCell id="leXOIWLIU-b6ZJSCzYFR-22" value="" style="shape=tableRow;horizontal=0;startSize=0;swimlaneHead=0;swimlaneBody=0;fillColor=none;collapsible=0;dropTarget=0;points=[[0,0.5],[1,0.5]];portConstraint=eastwest;top=0;left=0;right=0;bottom=0;fontSize=16;" parent="leXOIWLIU-b6ZJSCzYFR-12" vertex="1">
          <mxGeometry y="163" width="180" height="39" as="geometry" />
        </mxCell>
        <mxCell id="leXOIWLIU-b6ZJSCzYFR-23" value="" style="shape=partialRectangle;connectable=0;fillColor=none;top=0;left=0;bottom=0;right=0;editable=1;overflow=hidden;whiteSpace=wrap;html=1;fontSize=16;" parent="leXOIWLIU-b6ZJSCzYFR-22" vertex="1">
          <mxGeometry width="30" height="39" as="geometry">
            <mxRectangle width="30" height="39" as="alternateBounds" />
          </mxGeometry>
        </mxCell>
        <mxCell id="leXOIWLIU-b6ZJSCzYFR-24" value="first_name" style="shape=partialRectangle;connectable=0;fillColor=none;top=0;left=0;bottom=0;right=0;align=left;spacingLeft=6;overflow=hidden;whiteSpace=wrap;html=1;fontSize=16;" parent="leXOIWLIU-b6ZJSCzYFR-22" vertex="1">
          <mxGeometry x="30" width="150" height="39" as="geometry">
            <mxRectangle width="150" height="39" as="alternateBounds" />
          </mxGeometry>
        </mxCell>
        <mxCell id="leXOIWLIU-b6ZJSCzYFR-25" value="" style="shape=tableRow;horizontal=0;startSize=0;swimlaneHead=0;swimlaneBody=0;fillColor=none;collapsible=0;dropTarget=0;points=[[0,0.5],[1,0.5]];portConstraint=eastwest;top=0;left=0;right=0;bottom=0;fontSize=16;" parent="leXOIWLIU-b6ZJSCzYFR-12" vertex="1">
          <mxGeometry y="202" width="180" height="39" as="geometry" />
        </mxCell>
        <mxCell id="leXOIWLIU-b6ZJSCzYFR-26" value="" style="shape=partialRectangle;connectable=0;fillColor=none;top=0;left=0;bottom=0;right=0;editable=1;overflow=hidden;whiteSpace=wrap;html=1;fontSize=16;" parent="leXOIWLIU-b6ZJSCzYFR-25" vertex="1">
          <mxGeometry width="30" height="39" as="geometry">
            <mxRectangle width="30" height="39" as="alternateBounds" />
          </mxGeometry>
        </mxCell>
        <mxCell id="leXOIWLIU-b6ZJSCzYFR-27" value="last_name" style="shape=partialRectangle;connectable=0;fillColor=none;top=0;left=0;bottom=0;right=0;align=left;spacingLeft=6;overflow=hidden;whiteSpace=wrap;html=1;fontSize=16;" parent="leXOIWLIU-b6ZJSCzYFR-25" vertex="1">
          <mxGeometry x="30" width="150" height="39" as="geometry">
            <mxRectangle width="150" height="39" as="alternateBounds" />
          </mxGeometry>
        </mxCell>
        <mxCell id="leXOIWLIU-b6ZJSCzYFR-28" value="" style="shape=tableRow;horizontal=0;startSize=0;swimlaneHead=0;swimlaneBody=0;fillColor=none;collapsible=0;dropTarget=0;points=[[0,0.5],[1,0.5]];portConstraint=eastwest;top=0;left=0;right=0;bottom=0;fontSize=16;" parent="leXOIWLIU-b6ZJSCzYFR-12" vertex="1">
          <mxGeometry y="241" width="180" height="39" as="geometry" />
        </mxCell>
        <mxCell id="leXOIWLIU-b6ZJSCzYFR-29" value="" style="shape=partialRectangle;connectable=0;fillColor=none;top=0;left=0;bottom=0;right=0;editable=1;overflow=hidden;whiteSpace=wrap;html=1;fontSize=16;" parent="leXOIWLIU-b6ZJSCzYFR-28" vertex="1">
          <mxGeometry width="30" height="39" as="geometry">
            <mxRectangle width="30" height="39" as="alternateBounds" />
          </mxGeometry>
        </mxCell>
        <mxCell id="leXOIWLIU-b6ZJSCzYFR-30" value="country" style="shape=partialRectangle;connectable=0;fillColor=none;top=0;left=0;bottom=0;right=0;align=left;spacingLeft=6;overflow=hidden;whiteSpace=wrap;html=1;fontSize=16;" parent="leXOIWLIU-b6ZJSCzYFR-28" vertex="1">
          <mxGeometry x="30" width="150" height="39" as="geometry">
            <mxRectangle width="150" height="39" as="alternateBounds" />
          </mxGeometry>
        </mxCell>
        <mxCell id="leXOIWLIU-b6ZJSCzYFR-31" value="" style="shape=tableRow;horizontal=0;startSize=0;swimlaneHead=0;swimlaneBody=0;fillColor=none;collapsible=0;dropTarget=0;points=[[0,0.5],[1,0.5]];portConstraint=eastwest;top=0;left=0;right=0;bottom=0;fontSize=16;" parent="leXOIWLIU-b6ZJSCzYFR-12" vertex="1">
          <mxGeometry y="280" width="180" height="39" as="geometry" />
        </mxCell>
        <mxCell id="leXOIWLIU-b6ZJSCzYFR-32" value="" style="shape=partialRectangle;connectable=0;fillColor=none;top=0;left=0;bottom=0;right=0;editable=1;overflow=hidden;whiteSpace=wrap;html=1;fontSize=16;" parent="leXOIWLIU-b6ZJSCzYFR-31" vertex="1">
          <mxGeometry width="30" height="39" as="geometry">
            <mxRectangle width="30" height="39" as="alternateBounds" />
          </mxGeometry>
        </mxCell>
        <mxCell id="leXOIWLIU-b6ZJSCzYFR-33" value="marital_status" style="shape=partialRectangle;connectable=0;fillColor=none;top=0;left=0;bottom=0;right=0;align=left;spacingLeft=6;overflow=hidden;whiteSpace=wrap;html=1;fontSize=16;" parent="leXOIWLIU-b6ZJSCzYFR-31" vertex="1">
          <mxGeometry x="30" width="150" height="39" as="geometry">
            <mxRectangle width="150" height="39" as="alternateBounds" />
          </mxGeometry>
        </mxCell>
        <mxCell id="leXOIWLIU-b6ZJSCzYFR-34" value="" style="shape=tableRow;horizontal=0;startSize=0;swimlaneHead=0;swimlaneBody=0;fillColor=none;collapsible=0;dropTarget=0;points=[[0,0.5],[1,0.5]];portConstraint=eastwest;top=0;left=0;right=0;bottom=0;fontSize=16;" parent="leXOIWLIU-b6ZJSCzYFR-12" vertex="1">
          <mxGeometry y="319" width="180" height="39" as="geometry" />
        </mxCell>
        <mxCell id="leXOIWLIU-b6ZJSCzYFR-35" value="" style="shape=partialRectangle;connectable=0;fillColor=none;top=0;left=0;bottom=0;right=0;editable=1;overflow=hidden;whiteSpace=wrap;html=1;fontSize=16;" parent="leXOIWLIU-b6ZJSCzYFR-34" vertex="1">
          <mxGeometry width="30" height="39" as="geometry">
            <mxRectangle width="30" height="39" as="alternateBounds" />
          </mxGeometry>
        </mxCell>
        <mxCell id="leXOIWLIU-b6ZJSCzYFR-36" value="gender" style="shape=partialRectangle;connectable=0;fillColor=none;top=0;left=0;bottom=0;right=0;align=left;spacingLeft=6;overflow=hidden;whiteSpace=wrap;html=1;fontSize=16;" parent="leXOIWLIU-b6ZJSCzYFR-34" vertex="1">
          <mxGeometry x="30" width="150" height="39" as="geometry">
            <mxRectangle width="150" height="39" as="alternateBounds" />
          </mxGeometry>
        </mxCell>
        <mxCell id="leXOIWLIU-b6ZJSCzYFR-37" value="" style="shape=tableRow;horizontal=0;startSize=0;swimlaneHead=0;swimlaneBody=0;fillColor=none;collapsible=0;dropTarget=0;points=[[0,0.5],[1,0.5]];portConstraint=eastwest;top=0;left=0;right=0;bottom=0;fontSize=16;" parent="leXOIWLIU-b6ZJSCzYFR-12" vertex="1">
          <mxGeometry y="358" width="180" height="39" as="geometry" />
        </mxCell>
        <mxCell id="leXOIWLIU-b6ZJSCzYFR-38" value="" style="shape=partialRectangle;connectable=0;fillColor=none;top=0;left=0;bottom=0;right=0;editable=1;overflow=hidden;whiteSpace=wrap;html=1;fontSize=16;" parent="leXOIWLIU-b6ZJSCzYFR-37" vertex="1">
          <mxGeometry width="30" height="39" as="geometry">
            <mxRectangle width="30" height="39" as="alternateBounds" />
          </mxGeometry>
        </mxCell>
        <mxCell id="leXOIWLIU-b6ZJSCzYFR-39" value="birthday" style="shape=partialRectangle;connectable=0;fillColor=none;top=0;left=0;bottom=0;right=0;align=left;spacingLeft=6;overflow=hidden;whiteSpace=wrap;html=1;fontSize=16;" parent="leXOIWLIU-b6ZJSCzYFR-37" vertex="1">
          <mxGeometry x="30" width="150" height="39" as="geometry">
            <mxRectangle width="150" height="39" as="alternateBounds" />
          </mxGeometry>
        </mxCell>
        <mxCell id="leXOIWLIU-b6ZJSCzYFR-40" value="" style="shape=tableRow;horizontal=0;startSize=0;swimlaneHead=0;swimlaneBody=0;fillColor=none;collapsible=0;dropTarget=0;points=[[0,0.5],[1,0.5]];portConstraint=eastwest;top=0;left=0;right=0;bottom=0;fontSize=16;" parent="leXOIWLIU-b6ZJSCzYFR-12" vertex="1">
          <mxGeometry y="397" width="180" height="39" as="geometry" />
        </mxCell>
        <mxCell id="leXOIWLIU-b6ZJSCzYFR-41" value="" style="shape=partialRectangle;connectable=0;fillColor=none;top=0;left=0;bottom=0;right=0;editable=1;overflow=hidden;whiteSpace=wrap;html=1;fontSize=16;" parent="leXOIWLIU-b6ZJSCzYFR-40" vertex="1">
          <mxGeometry width="30" height="39" as="geometry">
            <mxRectangle width="30" height="39" as="alternateBounds" />
          </mxGeometry>
        </mxCell>
        <mxCell id="leXOIWLIU-b6ZJSCzYFR-42" value="create_date" style="shape=partialRectangle;connectable=0;fillColor=none;top=0;left=0;bottom=0;right=0;align=left;spacingLeft=6;overflow=hidden;whiteSpace=wrap;html=1;fontSize=16;" parent="leXOIWLIU-b6ZJSCzYFR-40" vertex="1">
          <mxGeometry x="30" width="150" height="39" as="geometry">
            <mxRectangle width="150" height="39" as="alternateBounds" />
          </mxGeometry>
        </mxCell>
        <mxCell id="leXOIWLIU-b6ZJSCzYFR-43" value="&lt;font&gt;gold.fact_sales&lt;/font&gt;" style="shape=table;startSize=46;container=1;collapsible=1;childLayout=tableLayout;fixedRows=1;rowLines=0;fontStyle=1;align=center;resizeLast=1;html=1;fillColor=#dae8fc;strokeColor=#6c8ebf;fontSize=16;rounded=1;arcSize=13;" parent="1" vertex="1">
          <mxGeometry x="491" y="200" width="180" height="397" as="geometry" />
        </mxCell>
        <mxCell id="leXOIWLIU-b6ZJSCzYFR-47" value="" style="shape=tableRow;horizontal=0;startSize=0;swimlaneHead=0;swimlaneBody=0;fillColor=none;collapsible=0;dropTarget=0;points=[[0,0.5],[1,0.5]];portConstraint=eastwest;top=0;left=0;right=0;bottom=0;fontSize=16;" parent="leXOIWLIU-b6ZJSCzYFR-43" vertex="1">
          <mxGeometry y="46" width="180" height="39" as="geometry" />
        </mxCell>
        <mxCell id="leXOIWLIU-b6ZJSCzYFR-48" value="" style="shape=partialRectangle;connectable=0;fillColor=none;top=0;left=0;bottom=0;right=0;editable=1;overflow=hidden;whiteSpace=wrap;html=1;fontSize=16;" parent="leXOIWLIU-b6ZJSCzYFR-47" vertex="1">
          <mxGeometry width="40" height="39" as="geometry">
            <mxRectangle width="40" height="39" as="alternateBounds" />
          </mxGeometry>
        </mxCell>
        <mxCell id="leXOIWLIU-b6ZJSCzYFR-49" value="order_number" style="shape=partialRectangle;connectable=0;fillColor=none;top=0;left=0;bottom=0;right=0;align=left;spacingLeft=6;overflow=hidden;whiteSpace=wrap;html=1;fontSize=16;" parent="leXOIWLIU-b6ZJSCzYFR-47" vertex="1">
          <mxGeometry x="40" width="140" height="39" as="geometry">
            <mxRectangle width="140" height="39" as="alternateBounds" />
          </mxGeometry>
        </mxCell>
        <mxCell id="leXOIWLIU-b6ZJSCzYFR-50" value="" style="shape=tableRow;horizontal=0;startSize=0;swimlaneHead=0;swimlaneBody=0;fillColor=none;collapsible=0;dropTarget=0;points=[[0,0.5],[1,0.5]];portConstraint=eastwest;top=0;left=0;right=0;bottom=0;fontSize=16;" parent="leXOIWLIU-b6ZJSCzYFR-43" vertex="1">
          <mxGeometry y="85" width="180" height="39" as="geometry" />
        </mxCell>
        <mxCell id="leXOIWLIU-b6ZJSCzYFR-51" value="FK1" style="shape=partialRectangle;connectable=0;fillColor=none;top=0;left=0;bottom=0;right=0;editable=1;overflow=hidden;whiteSpace=wrap;html=1;fontSize=16;" parent="leXOIWLIU-b6ZJSCzYFR-50" vertex="1">
          <mxGeometry width="40" height="39" as="geometry">
            <mxRectangle width="40" height="39" as="alternateBounds" />
          </mxGeometry>
        </mxCell>
        <mxCell id="leXOIWLIU-b6ZJSCzYFR-52" value="product_key" style="shape=partialRectangle;connectable=0;fillColor=none;top=0;left=0;bottom=0;right=0;align=left;spacingLeft=6;overflow=hidden;whiteSpace=wrap;html=1;fontSize=16;" parent="leXOIWLIU-b6ZJSCzYFR-50" vertex="1">
          <mxGeometry x="40" width="140" height="39" as="geometry">
            <mxRectangle width="140" height="39" as="alternateBounds" />
          </mxGeometry>
        </mxCell>
        <mxCell id="leXOIWLIU-b6ZJSCzYFR-53" value="" style="shape=tableRow;horizontal=0;startSize=0;swimlaneHead=0;swimlaneBody=0;fillColor=none;collapsible=0;dropTarget=0;points=[[0,0.5],[1,0.5]];portConstraint=eastwest;top=0;left=0;right=0;bottom=0;fontSize=16;" parent="leXOIWLIU-b6ZJSCzYFR-43" vertex="1">
          <mxGeometry y="124" width="180" height="39" as="geometry" />
        </mxCell>
        <mxCell id="leXOIWLIU-b6ZJSCzYFR-54" value="FK2" style="shape=partialRectangle;connectable=0;fillColor=none;top=0;left=0;bottom=0;right=0;editable=1;overflow=hidden;whiteSpace=wrap;html=1;fontSize=16;" parent="leXOIWLIU-b6ZJSCzYFR-53" vertex="1">
          <mxGeometry width="40" height="39" as="geometry">
            <mxRectangle width="40" height="39" as="alternateBounds" />
          </mxGeometry>
        </mxCell>
        <mxCell id="leXOIWLIU-b6ZJSCzYFR-55" value="customer_key" style="shape=partialRectangle;connectable=0;fillColor=none;top=0;left=0;bottom=0;right=0;align=left;spacingLeft=6;overflow=hidden;whiteSpace=wrap;html=1;fontSize=16;" parent="leXOIWLIU-b6ZJSCzYFR-53" vertex="1">
          <mxGeometry x="40" width="140" height="39" as="geometry">
            <mxRectangle width="140" height="39" as="alternateBounds" />
          </mxGeometry>
        </mxCell>
        <mxCell id="leXOIWLIU-b6ZJSCzYFR-56" value="" style="shape=tableRow;horizontal=0;startSize=0;swimlaneHead=0;swimlaneBody=0;fillColor=none;collapsible=0;dropTarget=0;points=[[0,0.5],[1,0.5]];portConstraint=eastwest;top=0;left=0;right=0;bottom=0;fontSize=16;" parent="leXOIWLIU-b6ZJSCzYFR-43" vertex="1">
          <mxGeometry y="163" width="180" height="39" as="geometry" />
        </mxCell>
        <mxCell id="leXOIWLIU-b6ZJSCzYFR-57" value="" style="shape=partialRectangle;connectable=0;fillColor=none;top=0;left=0;bottom=0;right=0;editable=1;overflow=hidden;whiteSpace=wrap;html=1;fontSize=16;" parent="leXOIWLIU-b6ZJSCzYFR-56" vertex="1">
          <mxGeometry width="40" height="39" as="geometry">
            <mxRectangle width="40" height="39" as="alternateBounds" />
          </mxGeometry>
        </mxCell>
        <mxCell id="leXOIWLIU-b6ZJSCzYFR-58" value="order_date" style="shape=partialRectangle;connectable=0;fillColor=none;top=0;left=0;bottom=0;right=0;align=left;spacingLeft=6;overflow=hidden;whiteSpace=wrap;html=1;fontSize=16;" parent="leXOIWLIU-b6ZJSCzYFR-56" vertex="1">
          <mxGeometry x="40" width="140" height="39" as="geometry">
            <mxRectangle width="140" height="39" as="alternateBounds" />
          </mxGeometry>
        </mxCell>
        <mxCell id="leXOIWLIU-b6ZJSCzYFR-59" value="" style="shape=tableRow;horizontal=0;startSize=0;swimlaneHead=0;swimlaneBody=0;fillColor=none;collapsible=0;dropTarget=0;points=[[0,0.5],[1,0.5]];portConstraint=eastwest;top=0;left=0;right=0;bottom=0;fontSize=16;" parent="leXOIWLIU-b6ZJSCzYFR-43" vertex="1">
          <mxGeometry y="202" width="180" height="39" as="geometry" />
        </mxCell>
        <mxCell id="leXOIWLIU-b6ZJSCzYFR-60" value="" style="shape=partialRectangle;connectable=0;fillColor=none;top=0;left=0;bottom=0;right=0;editable=1;overflow=hidden;whiteSpace=wrap;html=1;fontSize=16;" parent="leXOIWLIU-b6ZJSCzYFR-59" vertex="1">
          <mxGeometry width="40" height="39" as="geometry">
            <mxRectangle width="40" height="39" as="alternateBounds" />
          </mxGeometry>
        </mxCell>
        <mxCell id="leXOIWLIU-b6ZJSCzYFR-61" value="ship_date" style="shape=partialRectangle;connectable=0;fillColor=none;top=0;left=0;bottom=0;right=0;align=left;spacingLeft=6;overflow=hidden;whiteSpace=wrap;html=1;fontSize=16;" parent="leXOIWLIU-b6ZJSCzYFR-59" vertex="1">
          <mxGeometry x="40" width="140" height="39" as="geometry">
            <mxRectangle width="140" height="39" as="alternateBounds" />
          </mxGeometry>
        </mxCell>
        <mxCell id="leXOIWLIU-b6ZJSCzYFR-62" value="" style="shape=tableRow;horizontal=0;startSize=0;swimlaneHead=0;swimlaneBody=0;fillColor=none;collapsible=0;dropTarget=0;points=[[0,0.5],[1,0.5]];portConstraint=eastwest;top=0;left=0;right=0;bottom=0;fontSize=16;" parent="leXOIWLIU-b6ZJSCzYFR-43" vertex="1">
          <mxGeometry y="241" width="180" height="39" as="geometry" />
        </mxCell>
        <mxCell id="leXOIWLIU-b6ZJSCzYFR-63" value="" style="shape=partialRectangle;connectable=0;fillColor=none;top=0;left=0;bottom=0;right=0;editable=1;overflow=hidden;whiteSpace=wrap;html=1;fontSize=16;" parent="leXOIWLIU-b6ZJSCzYFR-62" vertex="1">
          <mxGeometry width="40" height="39" as="geometry">
            <mxRectangle width="40" height="39" as="alternateBounds" />
          </mxGeometry>
        </mxCell>
        <mxCell id="leXOIWLIU-b6ZJSCzYFR-64" value="due_date" style="shape=partialRectangle;connectable=0;fillColor=none;top=0;left=0;bottom=0;right=0;align=left;spacingLeft=6;overflow=hidden;whiteSpace=wrap;html=1;fontSize=16;" parent="leXOIWLIU-b6ZJSCzYFR-62" vertex="1">
          <mxGeometry x="40" width="140" height="39" as="geometry">
            <mxRectangle width="140" height="39" as="alternateBounds" />
          </mxGeometry>
        </mxCell>
        <mxCell id="leXOIWLIU-b6ZJSCzYFR-65" value="" style="shape=tableRow;horizontal=0;startSize=0;swimlaneHead=0;swimlaneBody=0;fillColor=none;collapsible=0;dropTarget=0;points=[[0,0.5],[1,0.5]];portConstraint=eastwest;top=0;left=0;right=0;bottom=0;fontSize=16;" parent="leXOIWLIU-b6ZJSCzYFR-43" vertex="1">
          <mxGeometry y="280" width="180" height="39" as="geometry" />
        </mxCell>
        <mxCell id="leXOIWLIU-b6ZJSCzYFR-66" value="" style="shape=partialRectangle;connectable=0;fillColor=none;top=0;left=0;bottom=0;right=0;editable=1;overflow=hidden;whiteSpace=wrap;html=1;fontSize=16;" parent="leXOIWLIU-b6ZJSCzYFR-65" vertex="1">
          <mxGeometry width="40" height="39" as="geometry">
            <mxRectangle width="40" height="39" as="alternateBounds" />
          </mxGeometry>
        </mxCell>
        <mxCell id="leXOIWLIU-b6ZJSCzYFR-67" value="sales_amount" style="shape=partialRectangle;connectable=0;fillColor=none;top=0;left=0;bottom=0;right=0;align=left;spacingLeft=6;overflow=hidden;whiteSpace=wrap;html=1;fontSize=16;" parent="leXOIWLIU-b6ZJSCzYFR-65" vertex="1">
          <mxGeometry x="40" width="140" height="39" as="geometry">
            <mxRectangle width="140" height="39" as="alternateBounds" />
          </mxGeometry>
        </mxCell>
        <mxCell id="leXOIWLIU-b6ZJSCzYFR-68" value="" style="shape=tableRow;horizontal=0;startSize=0;swimlaneHead=0;swimlaneBody=0;fillColor=none;collapsible=0;dropTarget=0;points=[[0,0.5],[1,0.5]];portConstraint=eastwest;top=0;left=0;right=0;bottom=0;fontSize=16;" parent="leXOIWLIU-b6ZJSCzYFR-43" vertex="1">
          <mxGeometry y="319" width="180" height="39" as="geometry" />
        </mxCell>
        <mxCell id="leXOIWLIU-b6ZJSCzYFR-69" value="" style="shape=partialRectangle;connectable=0;fillColor=none;top=0;left=0;bottom=0;right=0;editable=1;overflow=hidden;whiteSpace=wrap;html=1;fontSize=16;" parent="leXOIWLIU-b6ZJSCzYFR-68" vertex="1">
          <mxGeometry width="40" height="39" as="geometry">
            <mxRectangle width="40" height="39" as="alternateBounds" />
          </mxGeometry>
        </mxCell>
        <mxCell id="leXOIWLIU-b6ZJSCzYFR-70" value="quantity" style="shape=partialRectangle;connectable=0;fillColor=none;top=0;left=0;bottom=0;right=0;align=left;spacingLeft=6;overflow=hidden;whiteSpace=wrap;html=1;fontSize=16;" parent="leXOIWLIU-b6ZJSCzYFR-68" vertex="1">
          <mxGeometry x="40" width="140" height="39" as="geometry">
            <mxRectangle width="140" height="39" as="alternateBounds" />
          </mxGeometry>
        </mxCell>
        <mxCell id="leXOIWLIU-b6ZJSCzYFR-71" value="" style="shape=tableRow;horizontal=0;startSize=0;swimlaneHead=0;swimlaneBody=0;fillColor=none;collapsible=0;dropTarget=0;points=[[0,0.5],[1,0.5]];portConstraint=eastwest;top=0;left=0;right=0;bottom=0;fontSize=16;" parent="leXOIWLIU-b6ZJSCzYFR-43" vertex="1">
          <mxGeometry y="358" width="180" height="39" as="geometry" />
        </mxCell>
        <mxCell id="leXOIWLIU-b6ZJSCzYFR-72" value="" style="shape=partialRectangle;connectable=0;fillColor=none;top=0;left=0;bottom=0;right=0;editable=1;overflow=hidden;whiteSpace=wrap;html=1;fontSize=16;" parent="leXOIWLIU-b6ZJSCzYFR-71" vertex="1">
          <mxGeometry width="40" height="39" as="geometry">
            <mxRectangle width="40" height="39" as="alternateBounds" />
          </mxGeometry>
        </mxCell>
        <mxCell id="leXOIWLIU-b6ZJSCzYFR-73" value="price" style="shape=partialRectangle;connectable=0;fillColor=none;top=0;left=0;bottom=0;right=0;align=left;spacingLeft=6;overflow=hidden;whiteSpace=wrap;html=1;fontSize=16;" parent="leXOIWLIU-b6ZJSCzYFR-71" vertex="1">
          <mxGeometry x="40" width="140" height="39" as="geometry">
            <mxRectangle width="140" height="39" as="alternateBounds" />
          </mxGeometry>
        </mxCell>
        <mxCell id="leXOIWLIU-b6ZJSCzYFR-77" value="&lt;font&gt;gold.dim_products&lt;/font&gt;" style="shape=table;startSize=46;container=1;collapsible=1;childLayout=tableLayout;fixedRows=1;rowLines=0;fontStyle=1;align=center;resizeLast=1;html=1;fillColor=#fff2cc;strokeColor=#d6b656;fontSize=16;rounded=1;arcSize=13;" parent="1" vertex="1">
          <mxGeometry x="810" y="200" width="180" height="475" as="geometry" />
        </mxCell>
        <mxCell id="leXOIWLIU-b6ZJSCzYFR-78" value="" style="shape=tableRow;horizontal=0;startSize=0;swimlaneHead=0;swimlaneBody=0;fillColor=none;collapsible=0;dropTarget=0;points=[[0,0.5],[1,0.5]];portConstraint=eastwest;top=0;left=0;right=0;bottom=1;fontSize=16;" parent="leXOIWLIU-b6ZJSCzYFR-77" vertex="1">
          <mxGeometry y="46" width="180" height="39" as="geometry" />
        </mxCell>
        <mxCell id="leXOIWLIU-b6ZJSCzYFR-79" value="PK" style="shape=partialRectangle;connectable=0;fillColor=none;top=0;left=0;bottom=0;right=0;fontStyle=1;overflow=hidden;whiteSpace=wrap;html=1;fontSize=16;" parent="leXOIWLIU-b6ZJSCzYFR-78" vertex="1">
          <mxGeometry width="30" height="39" as="geometry">
            <mxRectangle width="30" height="39" as="alternateBounds" />
          </mxGeometry>
        </mxCell>
        <mxCell id="leXOIWLIU-b6ZJSCzYFR-80" value="product_key" style="shape=partialRectangle;connectable=0;fillColor=none;top=0;left=0;bottom=0;right=0;align=left;spacingLeft=6;fontStyle=5;overflow=hidden;whiteSpace=wrap;html=1;fontSize=16;" parent="leXOIWLIU-b6ZJSCzYFR-78" vertex="1">
          <mxGeometry x="30" width="150" height="39" as="geometry">
            <mxRectangle width="150" height="39" as="alternateBounds" />
          </mxGeometry>
        </mxCell>
        <mxCell id="leXOIWLIU-b6ZJSCzYFR-81" value="" style="shape=tableRow;horizontal=0;startSize=0;swimlaneHead=0;swimlaneBody=0;fillColor=none;collapsible=0;dropTarget=0;points=[[0,0.5],[1,0.5]];portConstraint=eastwest;top=0;left=0;right=0;bottom=0;fontSize=16;" parent="leXOIWLIU-b6ZJSCzYFR-77" vertex="1">
          <mxGeometry y="85" width="180" height="39" as="geometry" />
        </mxCell>
        <mxCell id="leXOIWLIU-b6ZJSCzYFR-82" value="" style="shape=partialRectangle;connectable=0;fillColor=none;top=0;left=0;bottom=0;right=0;editable=1;overflow=hidden;whiteSpace=wrap;html=1;fontSize=16;" parent="leXOIWLIU-b6ZJSCzYFR-81" vertex="1">
          <mxGeometry width="30" height="39" as="geometry">
            <mxRectangle width="30" height="39" as="alternateBounds" />
          </mxGeometry>
        </mxCell>
        <mxCell id="leXOIWLIU-b6ZJSCzYFR-83" value="product_id" style="shape=partialRectangle;connectable=0;fillColor=none;top=0;left=0;bottom=0;right=0;align=left;spacingLeft=6;overflow=hidden;whiteSpace=wrap;html=1;fontSize=16;" parent="leXOIWLIU-b6ZJSCzYFR-81" vertex="1">
          <mxGeometry x="30" width="150" height="39" as="geometry">
            <mxRectangle width="150" height="39" as="alternateBounds" />
          </mxGeometry>
        </mxCell>
        <mxCell id="leXOIWLIU-b6ZJSCzYFR-84" value="" style="shape=tableRow;horizontal=0;startSize=0;swimlaneHead=0;swimlaneBody=0;fillColor=none;collapsible=0;dropTarget=0;points=[[0,0.5],[1,0.5]];portConstraint=eastwest;top=0;left=0;right=0;bottom=0;fontSize=16;" parent="leXOIWLIU-b6ZJSCzYFR-77" vertex="1">
          <mxGeometry y="124" width="180" height="39" as="geometry" />
        </mxCell>
        <mxCell id="leXOIWLIU-b6ZJSCzYFR-85" value="" style="shape=partialRectangle;connectable=0;fillColor=none;top=0;left=0;bottom=0;right=0;editable=1;overflow=hidden;whiteSpace=wrap;html=1;fontSize=16;" parent="leXOIWLIU-b6ZJSCzYFR-84" vertex="1">
          <mxGeometry width="30" height="39" as="geometry">
            <mxRectangle width="30" height="39" as="alternateBounds" />
          </mxGeometry>
        </mxCell>
        <mxCell id="leXOIWLIU-b6ZJSCzYFR-86" value="product_number" style="shape=partialRectangle;connectable=0;fillColor=none;top=0;left=0;bottom=0;right=0;align=left;spacingLeft=6;overflow=hidden;whiteSpace=wrap;html=1;fontSize=16;" parent="leXOIWLIU-b6ZJSCzYFR-84" vertex="1">
          <mxGeometry x="30" width="150" height="39" as="geometry">
            <mxRectangle width="150" height="39" as="alternateBounds" />
          </mxGeometry>
        </mxCell>
        <mxCell id="leXOIWLIU-b6ZJSCzYFR-87" value="" style="shape=tableRow;horizontal=0;startSize=0;swimlaneHead=0;swimlaneBody=0;fillColor=none;collapsible=0;dropTarget=0;points=[[0,0.5],[1,0.5]];portConstraint=eastwest;top=0;left=0;right=0;bottom=0;fontSize=16;" parent="leXOIWLIU-b6ZJSCzYFR-77" vertex="1">
          <mxGeometry y="163" width="180" height="39" as="geometry" />
        </mxCell>
        <mxCell id="leXOIWLIU-b6ZJSCzYFR-88" value="" style="shape=partialRectangle;connectable=0;fillColor=none;top=0;left=0;bottom=0;right=0;editable=1;overflow=hidden;whiteSpace=wrap;html=1;fontSize=16;" parent="leXOIWLIU-b6ZJSCzYFR-87" vertex="1">
          <mxGeometry width="30" height="39" as="geometry">
            <mxRectangle width="30" height="39" as="alternateBounds" />
          </mxGeometry>
        </mxCell>
        <mxCell id="leXOIWLIU-b6ZJSCzYFR-89" value="product_name" style="shape=partialRectangle;connectable=0;fillColor=none;top=0;left=0;bottom=0;right=0;align=left;spacingLeft=6;overflow=hidden;whiteSpace=wrap;html=1;fontSize=16;" parent="leXOIWLIU-b6ZJSCzYFR-87" vertex="1">
          <mxGeometry x="30" width="150" height="39" as="geometry">
            <mxRectangle width="150" height="39" as="alternateBounds" />
          </mxGeometry>
        </mxCell>
        <mxCell id="leXOIWLIU-b6ZJSCzYFR-90" value="" style="shape=tableRow;horizontal=0;startSize=0;swimlaneHead=0;swimlaneBody=0;fillColor=none;collapsible=0;dropTarget=0;points=[[0,0.5],[1,0.5]];portConstraint=eastwest;top=0;left=0;right=0;bottom=0;fontSize=16;" parent="leXOIWLIU-b6ZJSCzYFR-77" vertex="1">
          <mxGeometry y="202" width="180" height="39" as="geometry" />
        </mxCell>
        <mxCell id="leXOIWLIU-b6ZJSCzYFR-91" value="" style="shape=partialRectangle;connectable=0;fillColor=none;top=0;left=0;bottom=0;right=0;editable=1;overflow=hidden;whiteSpace=wrap;html=1;fontSize=16;" parent="leXOIWLIU-b6ZJSCzYFR-90" vertex="1">
          <mxGeometry width="30" height="39" as="geometry">
            <mxRectangle width="30" height="39" as="alternateBounds" />
          </mxGeometry>
        </mxCell>
        <mxCell id="leXOIWLIU-b6ZJSCzYFR-92" value="category_id" style="shape=partialRectangle;connectable=0;fillColor=none;top=0;left=0;bottom=0;right=0;align=left;spacingLeft=6;overflow=hidden;whiteSpace=wrap;html=1;fontSize=16;" parent="leXOIWLIU-b6ZJSCzYFR-90" vertex="1">
          <mxGeometry x="30" width="150" height="39" as="geometry">
            <mxRectangle width="150" height="39" as="alternateBounds" />
          </mxGeometry>
        </mxCell>
        <mxCell id="leXOIWLIU-b6ZJSCzYFR-93" value="" style="shape=tableRow;horizontal=0;startSize=0;swimlaneHead=0;swimlaneBody=0;fillColor=none;collapsible=0;dropTarget=0;points=[[0,0.5],[1,0.5]];portConstraint=eastwest;top=0;left=0;right=0;bottom=0;fontSize=16;" parent="leXOIWLIU-b6ZJSCzYFR-77" vertex="1">
          <mxGeometry y="241" width="180" height="39" as="geometry" />
        </mxCell>
        <mxCell id="leXOIWLIU-b6ZJSCzYFR-94" value="" style="shape=partialRectangle;connectable=0;fillColor=none;top=0;left=0;bottom=0;right=0;editable=1;overflow=hidden;whiteSpace=wrap;html=1;fontSize=16;" parent="leXOIWLIU-b6ZJSCzYFR-93" vertex="1">
          <mxGeometry width="30" height="39" as="geometry">
            <mxRectangle width="30" height="39" as="alternateBounds" />
          </mxGeometry>
        </mxCell>
        <mxCell id="leXOIWLIU-b6ZJSCzYFR-95" value="category" style="shape=partialRectangle;connectable=0;fillColor=none;top=0;left=0;bottom=0;right=0;align=left;spacingLeft=6;overflow=hidden;whiteSpace=wrap;html=1;fontSize=16;" parent="leXOIWLIU-b6ZJSCzYFR-93" vertex="1">
          <mxGeometry x="30" width="150" height="39" as="geometry">
            <mxRectangle width="150" height="39" as="alternateBounds" />
          </mxGeometry>
        </mxCell>
        <mxCell id="leXOIWLIU-b6ZJSCzYFR-96" value="" style="shape=tableRow;horizontal=0;startSize=0;swimlaneHead=0;swimlaneBody=0;fillColor=none;collapsible=0;dropTarget=0;points=[[0,0.5],[1,0.5]];portConstraint=eastwest;top=0;left=0;right=0;bottom=0;fontSize=16;" parent="leXOIWLIU-b6ZJSCzYFR-77" vertex="1">
          <mxGeometry y="280" width="180" height="39" as="geometry" />
        </mxCell>
        <mxCell id="leXOIWLIU-b6ZJSCzYFR-97" value="" style="shape=partialRectangle;connectable=0;fillColor=none;top=0;left=0;bottom=0;right=0;editable=1;overflow=hidden;whiteSpace=wrap;html=1;fontSize=16;" parent="leXOIWLIU-b6ZJSCzYFR-96" vertex="1">
          <mxGeometry width="30" height="39" as="geometry">
            <mxRectangle width="30" height="39" as="alternateBounds" />
          </mxGeometry>
        </mxCell>
        <mxCell id="leXOIWLIU-b6ZJSCzYFR-98" value="subcategory" style="shape=partialRectangle;connectable=0;fillColor=none;top=0;left=0;bottom=0;right=0;align=left;spacingLeft=6;overflow=hidden;whiteSpace=wrap;html=1;fontSize=16;" parent="leXOIWLIU-b6ZJSCzYFR-96" vertex="1">
          <mxGeometry x="30" width="150" height="39" as="geometry">
            <mxRectangle width="150" height="39" as="alternateBounds" />
          </mxGeometry>
        </mxCell>
        <mxCell id="leXOIWLIU-b6ZJSCzYFR-99" value="" style="shape=tableRow;horizontal=0;startSize=0;swimlaneHead=0;swimlaneBody=0;fillColor=none;collapsible=0;dropTarget=0;points=[[0,0.5],[1,0.5]];portConstraint=eastwest;top=0;left=0;right=0;bottom=0;fontSize=16;" parent="leXOIWLIU-b6ZJSCzYFR-77" vertex="1">
          <mxGeometry y="319" width="180" height="39" as="geometry" />
        </mxCell>
        <mxCell id="leXOIWLIU-b6ZJSCzYFR-100" value="" style="shape=partialRectangle;connectable=0;fillColor=none;top=0;left=0;bottom=0;right=0;editable=1;overflow=hidden;whiteSpace=wrap;html=1;fontSize=16;" parent="leXOIWLIU-b6ZJSCzYFR-99" vertex="1">
          <mxGeometry width="30" height="39" as="geometry">
            <mxRectangle width="30" height="39" as="alternateBounds" />
          </mxGeometry>
        </mxCell>
        <mxCell id="leXOIWLIU-b6ZJSCzYFR-101" value="maintenance" style="shape=partialRectangle;connectable=0;fillColor=none;top=0;left=0;bottom=0;right=0;align=left;spacingLeft=6;overflow=hidden;whiteSpace=wrap;html=1;fontSize=16;" parent="leXOIWLIU-b6ZJSCzYFR-99" vertex="1">
          <mxGeometry x="30" width="150" height="39" as="geometry">
            <mxRectangle width="150" height="39" as="alternateBounds" />
          </mxGeometry>
        </mxCell>
        <mxCell id="leXOIWLIU-b6ZJSCzYFR-102" value="" style="shape=tableRow;horizontal=0;startSize=0;swimlaneHead=0;swimlaneBody=0;fillColor=none;collapsible=0;dropTarget=0;points=[[0,0.5],[1,0.5]];portConstraint=eastwest;top=0;left=0;right=0;bottom=0;fontSize=16;" parent="leXOIWLIU-b6ZJSCzYFR-77" vertex="1">
          <mxGeometry y="358" width="180" height="39" as="geometry" />
        </mxCell>
        <mxCell id="leXOIWLIU-b6ZJSCzYFR-103" value="" style="shape=partialRectangle;connectable=0;fillColor=none;top=0;left=0;bottom=0;right=0;editable=1;overflow=hidden;whiteSpace=wrap;html=1;fontSize=16;" parent="leXOIWLIU-b6ZJSCzYFR-102" vertex="1">
          <mxGeometry width="30" height="39" as="geometry">
            <mxRectangle width="30" height="39" as="alternateBounds" />
          </mxGeometry>
        </mxCell>
        <mxCell id="leXOIWLIU-b6ZJSCzYFR-104" value="cost" style="shape=partialRectangle;connectable=0;fillColor=none;top=0;left=0;bottom=0;right=0;align=left;spacingLeft=6;overflow=hidden;whiteSpace=wrap;html=1;fontSize=16;" parent="leXOIWLIU-b6ZJSCzYFR-102" vertex="1">
          <mxGeometry x="30" width="150" height="39" as="geometry">
            <mxRectangle width="150" height="39" as="alternateBounds" />
          </mxGeometry>
        </mxCell>
        <mxCell id="leXOIWLIU-b6ZJSCzYFR-105" value="" style="shape=tableRow;horizontal=0;startSize=0;swimlaneHead=0;swimlaneBody=0;fillColor=none;collapsible=0;dropTarget=0;points=[[0,0.5],[1,0.5]];portConstraint=eastwest;top=0;left=0;right=0;bottom=0;fontSize=16;" parent="leXOIWLIU-b6ZJSCzYFR-77" vertex="1">
          <mxGeometry y="397" width="180" height="39" as="geometry" />
        </mxCell>
        <mxCell id="leXOIWLIU-b6ZJSCzYFR-106" value="" style="shape=partialRectangle;connectable=0;fillColor=none;top=0;left=0;bottom=0;right=0;editable=1;overflow=hidden;whiteSpace=wrap;html=1;fontSize=16;" parent="leXOIWLIU-b6ZJSCzYFR-105" vertex="1">
          <mxGeometry width="30" height="39" as="geometry">
            <mxRectangle width="30" height="39" as="alternateBounds" />
          </mxGeometry>
        </mxCell>
        <mxCell id="leXOIWLIU-b6ZJSCzYFR-107" value="product_line" style="shape=partialRectangle;connectable=0;fillColor=none;top=0;left=0;bottom=0;right=0;align=left;spacingLeft=6;overflow=hidden;whiteSpace=wrap;html=1;fontSize=16;" parent="leXOIWLIU-b6ZJSCzYFR-105" vertex="1">
          <mxGeometry x="30" width="150" height="39" as="geometry">
            <mxRectangle width="150" height="39" as="alternateBounds" />
          </mxGeometry>
        </mxCell>
        <mxCell id="leXOIWLIU-b6ZJSCzYFR-108" value="" style="shape=tableRow;horizontal=0;startSize=0;swimlaneHead=0;swimlaneBody=0;fillColor=none;collapsible=0;dropTarget=0;points=[[0,0.5],[1,0.5]];portConstraint=eastwest;top=0;left=0;right=0;bottom=0;fontSize=16;" parent="leXOIWLIU-b6ZJSCzYFR-77" vertex="1">
          <mxGeometry y="436" width="180" height="39" as="geometry" />
        </mxCell>
        <mxCell id="leXOIWLIU-b6ZJSCzYFR-109" value="" style="shape=partialRectangle;connectable=0;fillColor=none;top=0;left=0;bottom=0;right=0;editable=1;overflow=hidden;whiteSpace=wrap;html=1;fontSize=16;" parent="leXOIWLIU-b6ZJSCzYFR-108" vertex="1">
          <mxGeometry width="30" height="39" as="geometry">
            <mxRectangle width="30" height="39" as="alternateBounds" />
          </mxGeometry>
        </mxCell>
        <mxCell id="leXOIWLIU-b6ZJSCzYFR-110" value="start_date" style="shape=partialRectangle;connectable=0;fillColor=none;top=0;left=0;bottom=0;right=0;align=left;spacingLeft=6;overflow=hidden;whiteSpace=wrap;html=1;fontSize=16;" parent="leXOIWLIU-b6ZJSCzYFR-108" vertex="1">
          <mxGeometry x="30" width="150" height="39" as="geometry">
            <mxRectangle width="150" height="39" as="alternateBounds" />
          </mxGeometry>
        </mxCell>
        <mxCell id="leXOIWLIU-b6ZJSCzYFR-111" value="" style="edgeStyle=entityRelationEdgeStyle;fontSize=12;html=1;endArrow=ERzeroToMany;startArrow=ERmandOne;rounded=0;exitX=1;exitY=0.5;exitDx=0;exitDy=0;entryX=0;entryY=0.5;entryDx=0;entryDy=0;" parent="1" source="leXOIWLIU-b6ZJSCzYFR-13" target="leXOIWLIU-b6ZJSCzYFR-53" edge="1">
          <mxGeometry width="100" height="100" relative="1" as="geometry">
            <mxPoint x="390" y="380" as="sourcePoint" />
            <mxPoint x="490" y="280" as="targetPoint" />
          </mxGeometry>
        </mxCell>
        <mxCell id="leXOIWLIU-b6ZJSCzYFR-112" value="" style="edgeStyle=entityRelationEdgeStyle;fontSize=12;html=1;endArrow=ERzeroToMany;startArrow=ERmandOne;rounded=0;entryX=1;entryY=0.5;entryDx=0;entryDy=0;exitX=0;exitY=0.5;exitDx=0;exitDy=0;" parent="1" source="leXOIWLIU-b6ZJSCzYFR-78" target="leXOIWLIU-b6ZJSCzYFR-50" edge="1">
          <mxGeometry width="100" height="100" relative="1" as="geometry">
            <mxPoint x="700" y="470" as="sourcePoint" />
            <mxPoint x="800" y="370" as="targetPoint" />
          </mxGeometry>
        </mxCell>
      </root>
    </mxGraphModel>
  </diagram>
</mxfile>
